<?xml version="1.0" standalone="no"?><svg xmlns="http://www.w3.org/2000/svg" viewBox="0 0 1440 320"><path fill="#0099ff" fill-opacity="1" d="M0,128L30,122.7C60,117,120,107,180,101.3C240,96,300,96,360,122.7C420,149,480,203,540,234.7C600,267,660,277,720,266.7C780,256,840,224,900,197.3C960,171,1020,149,1080,160C1140,171,1200,213,1260,208C1320,203,1380,149,1410,122.7L1440,96L1440,320L1410,320C1380,320,1320,320,1260,320C1200,320,1140,320,1080,320C1020,320,960,320,900,320C840,320,780,320,720,320C660,320,600,320,540,320C480,320,420,320,360,320C300,320,240,320,180,320C120,320,60,320,30,320L0,320Z"></path></svg>